# xmcd CD database file
#
# Track frame offsets:
#	150
#	16847
#	107565
#	121140
#	134529
#	149149
#	160848
#	274698
#
# Disc length: 3848 seconds
#
# Revision: 0
# Processed by: cddbd v1.5.1PL0 Copyright (c) Steve Scherf et al.
# Submitted via: CDex 1.51
#
DISCID=6d0f0608
DTITLE=parker, guy, lytton and crispell  - after appleby
DYEAR=2000
DGENRE=Jazz
TTITLE0=warp
TTITLE1=blue star
TTITLE2=wax
TTITLE3=falcon's wing
TTITLE4=wane
TTITLE5=weft
TTITLE6=where heart revive
TTITLE7=tchefit
EXTD=YEAR: 2000
EXTT0=
EXTT1=
EXTT2=
EXTT3=
EXTT4=
EXTT5=
EXTT6=
EXTT7=
PLAYORDER=
